<svg width="398" height="434" viewBox="0 0 398 434" fill="none" xmlns="http://www.w3.org/2000/svg">
<g clip-path="url(#clip0_3_1033)">
<path d="M353.598 330.286L353.59 330.482L362.934 434H294.749L285.911 370.422L282.021 432.37L212 431.555L219.438 350.224L225.763 312.525V312.517L226.712 306.844H351.738L351.902 308.898L353.598 330.286Z" fill="#116C88"/>
<path d="M173.405 390.296C180.626 391.674 188.156 383.154 190.223 371.265C191.128 366.061 190.836 361.074 189.616 356.996L190.724 350.142L209.305 257.947C209.305 257.947 243.522 186.238 243.521 173.789C243.52 161.34 233.623 155.235 233.623 155.235L220.23 155.366L178.231 262.835L170.667 342.25L169.444 353.145C166.929 356.511 164.977 361.069 164.073 366.274C162.005 378.162 166.183 388.918 173.405 390.296Z" fill="#FFB6B6"/>
<path d="M309.64 110.812L297.192 80.6531L256.736 87.989L254.013 123.472L309.64 110.812Z" fill="#FFB6B6"/>
<path opacity="0.1" d="M309.64 110.812L297.192 80.6531L256.736 87.989L254.013 123.472L309.64 110.812Z" fill="black"/>
<path d="M397.555 173.575C397.555 173.575 368.769 117.333 363.323 111.627C360.899 109.087 357.088 109.052 353.603 109.792L313.531 95.3249L299.948 87.3293L299.053 102.541L254.461 110.926C254.709 101.65 255.958 98.1211 255.958 98.1211L239.62 118.148L207.721 134.45L207.739 134.597C205.398 135.453 203.179 136.917 201.497 139.34C195.273 148.307 178.157 257.53 178.157 257.53L214.723 265.681L219.7 232.963L223.282 262.421L226.005 317.44C226.005 317.44 275.797 362.271 299.915 345.969C324.034 329.667 353.598 330.482 353.598 330.482L354.336 304.979C354.861 304.1 355.154 303.584 355.154 303.584L354.376 213.12V189.048C360.303 197.699 367.455 205.139 375.771 208.624C403.001 220.036 397.555 173.575 397.555 173.575Z" fill="#E6E6E6"/>
<path d="M272.735 93.2954C293.291 93.2954 309.954 75.8375 309.954 54.3021C309.954 32.7667 293.291 15.3088 272.735 15.3088C252.18 15.3088 235.517 32.7667 235.517 54.3021C235.517 75.8375 252.18 93.2954 272.735 93.2954Z" fill="#FFB6B6"/>
<path d="M299.436 65.3219C299.436 65.3219 302.672 53.4544 309.954 54.3021C317.236 55.1497 318.854 48.3683 317.236 44.9776C315.618 41.5869 312.381 24.6333 312.381 24.6333C312.381 24.6333 314 12.7658 304.29 11.0704C294.581 9.37504 291.345 7.67968 289.726 4.28896C288.108 0.898238 263.835 -2.49248 255.744 2.5936C247.653 7.67968 241.18 17.438 235.517 20.188C229.853 22.9379 224.998 28.024 228.235 36.5008C231.471 44.9776 236.165 61.5564 236.165 61.5564C236.165 61.5564 244.417 58.5405 246.035 63.6265C247.653 68.7126 241.18 61.9312 249.271 48.3683C257.362 34.8054 257.362 21.2426 270.308 26.3286C283.254 31.4147 297.818 29.7193 296.199 39.8915C294.581 50.0637 299.436 65.3219 299.436 65.3219Z" fill="#2F2E41"/>
<path d="M297.16 374.445H14.4968C6.50311 374.445 0 367.631 0 359.257V201.948C0 193.574 6.50311 186.76 14.4968 186.76H297.16C305.154 186.76 311.657 193.574 311.657 201.948V359.257C311.657 367.631 305.154 374.445 297.16 374.445Z" fill="white"/>
<path d="M297.16 374.445H14.4968C6.50311 374.445 0 367.631 0 359.257V201.948C0 193.574 6.50311 186.76 14.4968 186.76H297.16C305.154 186.76 311.657 193.574 311.657 201.948V359.257C311.657 367.631 305.154 374.445 297.16 374.445ZM14.4968 189.297C7.83825 189.297 2.42086 194.972 2.42086 201.948V359.257C2.42086 366.233 7.83825 371.909 14.4968 371.909H297.16C303.818 371.909 309.236 366.233 309.236 359.257V201.948C309.236 194.972 303.818 189.297 297.16 189.297H14.4968Z" fill="#3F3D56"/>
<path d="M275.344 205.782C277.349 205.782 278.975 204.079 278.975 201.978C278.975 199.877 277.349 198.174 275.344 198.174C273.338 198.174 271.712 199.877 271.712 201.978C271.712 204.079 273.338 205.782 275.344 205.782Z" fill="#3F3D56"/>
<path d="M285.027 205.782C287.033 205.782 288.658 204.079 288.658 201.978C288.658 199.877 287.033 198.174 285.027 198.174C283.022 198.174 281.396 199.877 281.396 201.978C281.396 204.079 283.022 205.782 285.027 205.782Z" fill="#3F3D56"/>
<path d="M294.711 205.782C296.716 205.782 298.342 204.079 298.342 201.978C298.342 199.877 296.716 198.174 294.711 198.174C292.705 198.174 291.079 199.877 291.079 201.978C291.079 204.079 292.705 205.782 294.711 205.782Z" fill="#3F3D56"/>
<path d="M20.5774 263.483C19.5762 263.483 18.7617 264.336 18.7617 265.385C18.7617 265.897 18.9503 266.37 19.2925 266.719C19.6376 267.089 20.0898 267.287 20.5774 267.287H292.29C293.291 267.287 294.105 266.434 294.105 265.385C294.105 264.874 293.917 264.401 293.575 264.051C293.23 263.681 292.777 263.483 292.29 263.483H20.5774Z" fill="#E6E6E6"/>
<path d="M258.398 262.849V267.921H20.5774C19.9116 267.921 19.3064 267.642 18.8707 267.173C18.4228 266.717 18.1565 266.083 18.1565 265.385C18.1565 263.99 19.2459 262.849 20.5774 262.849H258.398Z" fill="#00BCF5"/>
<path d="M289.264 253.338H265.055C262.385 253.338 260.213 251.063 260.213 248.265C260.213 245.468 262.385 243.193 265.055 243.193H289.264C291.933 243.193 294.105 245.468 294.105 248.265C294.105 251.063 291.933 253.338 289.264 253.338Z" fill="#E6E6E6"/>
<path d="M130.697 226.707H22.393C19.7233 226.707 17.5513 224.432 17.5513 221.634C17.5513 218.837 19.7233 216.562 22.393 216.562H130.697C133.367 216.562 135.539 218.837 135.539 221.634C135.539 224.432 133.367 226.707 130.697 226.707Z" fill="#E6E6E6"/>
<path d="M20.5774 320.549C19.5762 320.549 18.7617 321.402 18.7617 322.451C18.7617 322.963 18.9503 323.436 19.2925 323.785C19.6376 324.155 20.0898 324.354 20.5774 324.354H292.29C293.291 324.354 294.105 323.5 294.105 322.451C294.105 321.94 293.917 321.467 293.575 321.118C293.23 320.747 292.777 320.549 292.29 320.549H20.5774Z" fill="#E6E6E6"/>
<path d="M165.195 319.915V324.988H20.5774C19.9116 324.988 19.3064 324.709 18.8707 324.239C18.4228 323.783 18.1565 323.149 18.1565 322.451C18.1565 321.056 19.2459 319.915 20.5774 319.915H165.195Z" fill="#00BCF5"/>
<path d="M289.264 310.404H265.055C262.385 310.404 260.213 308.129 260.213 305.332C260.213 302.534 262.385 300.259 265.055 300.259H289.264C291.933 300.259 294.105 302.534 294.105 305.332C294.105 308.129 291.933 310.404 289.264 310.404Z" fill="#E6E6E6"/>
<path d="M331.644 96.2968C352.581 96.2968 369.554 78.8895 369.554 57.4166C369.554 35.9436 352.581 18.5364 331.644 18.5364C310.708 18.5364 293.735 35.9436 293.735 57.4166C293.735 78.8895 310.708 96.2968 331.644 96.2968Z" fill="#00BCF5"/>
<path d="M344.511 37.8052C339.464 47.4333 334.417 57.0615 329.37 66.6896C326.153 60.7353 322.954 54.7705 319.73 48.8209C318.616 46.7661 315.587 48.6142 316.704 50.6741C320.442 57.5711 324.141 64.491 327.879 71.388C328.518 72.5673 330.272 72.5946 330.905 71.388C336.449 60.8115 341.993 50.2349 347.537 39.6585C348.624 37.586 345.598 35.7311 344.511 37.8052Z" fill="white"/>
<path d="M383.977 159.9L346.207 140.971C346.207 140.971 344.69 128.301 337.607 123.782C336.402 120.772 335.017 117.466 333.759 114.846C330.647 108.367 335.315 96.1401 331.425 96.1401C327.535 96.1401 321.784 108.999 322.088 112.442C322.322 115.086 324.407 119.7 324.838 123.74C320.095 125.615 316.268 128.827 313.752 131.385C311.574 133.599 310.765 136.901 311.616 139.952C314.082 148.794 320.246 167.054 329.091 167.054C340.761 167.054 343.873 164.609 343.873 164.609C343.873 164.609 367.991 196.398 385.885 198.843C403.779 201.288 383.977 159.9 383.977 159.9Z" fill="#FFB6B6"/>
</g>
<defs>
<clipPath id="clip0_3_1033">
<rect width="398" height="434" fill="white"/>
</clipPath>
</defs>
</svg>
